solid OpenSCAD_Model
  facet normal 0 0 -1
    outer loop
      vertex 0 0 0
      vertex 24.748737341529164 24.748737341529164 0
      vertex 29.698484809834998 19.79898987322333 0
    endloop
  endfacet
  facet normal 0 0 -1
    outer loop
      vertex 28.284271247461902 28.284271247461902 0
      vertex 46.66904755831214 38.18376618407357 0
      vertex 43.1335136523794 34.64823227814083 0
    endloop
  endfacet
  facet normal 0 0 -1
    outer loop
      vertex 28.284271247461902 28.284271247461902 0
      vertex 43.1335136523794 34.64823227814083 0
      vertex 33.23401871576773 23.33452377915607 0
    endloop
  endfacet
  facet normal 0 0 -1
    outer loop
      vertex 28.284271247461902 28.284271247461902 0
      vertex 72.12489168102785 62.22539674441619 0
      vertex 46.66904755831214 38.18376618407357 0
    endloop
  endfacet
  facet normal 0 0 -1
    outer loop
      vertex 67.17514421272202 67.17514421272202 0
      vertex 72.12489168102785 62.22539674441619 0
      vertex 28.284271247461902 28.284271247461902 0
    endloop
  endfacet
  facet normal 0 0 -1
    outer loop
      vertex 0 0 0
      vertex 29.698484809834998 19.79898987322333 0
      vertex 13.435028842544403 -13.435028842544403 0
    endloop
  endfacet
  facet normal 0 0 -1
    outer loop
      vertex 33.23401871576773 23.33452377915607 0
      vertex 43.1335136523794 34.64823227814083 0
      vertex 46.66904755831214 31.112698372208094 0
    endloop
  endfacet
  facet normal 0 0 -1
    outer loop
      vertex 72.12489168102785 62.22539674441619 0
      vertex 50.204581464244875 34.64823227814083 0
      vertex 46.66904755831214 38.18376618407357 0
    endloop
  endfacet
  facet normal -0.7071067811865476 0.7071067811865476 0
    outer loop
      vertex 0 0 0
      vertex 0 0 5
      vertex 24.748737341529164 24.748737341529164 0
    endloop
  endfacet
  facet normal -0.7071067811865476 0.7071067811865476 0
    outer loop
      vertex 28.284271247461902 28.284271247461902 0
      vertex 28.284271247461902 28.284271247461902 5
      vertex 67.17514421272202 67.17514421272202 0
    endloop
  endfacet
  facet normal -0.7071067811865476 0.7071067811865476 0
    outer loop
      vertex 70.71067811865476 70.71067811865476 0
      vertex 70.71067811865476 70.71067811865476 5
      vertex 125.86500705120547 125.86500705120547 0
    endloop
  endfacet
  facet normal -0.7071067811865476 -0.7071067811865476 0
    outer loop
      vertex 0 0 0
      vertex 13.435028842544403 -13.435028842544403 0
      vertex 0 0 5
    endloop
  endfacet
  facet normal 0 0 -1
    outer loop
      vertex 125.86500705120547 125.86500705120547 0
      vertex 130.8147545195113 120.91525958289964 0
      vertex 70.71067811865476 70.71067811865476 0
    endloop
  endfacet
  facet normal 0 0 -1
    outer loop
      vertex 129.40054095713822 129.40054095713822 0
      vertex 163.3416664540925 154.8563850798539 0
      vertex 159.80613254815975 151.32085117392117 0
    endloop
  endfacet
  facet normal 0 0 -1
    outer loop
      vertex 129.40054095713822 129.40054095713822 0
      vertex 159.80613254815975 151.32085117392117 0
      vertex 134.35028842544406 124.45079348883239 0
    endloop
  endfacet
  facet normal 0 0 -1
    outer loop
      vertex 129.40054095713822 129.40054095713822 0
      vertex 169.7056274847714 169.7056274847714 0
      vertex 163.3416664540925 154.8563850798539 0
    endloop
  endfacet
  facet normal 0 0 -1
    outer loop
      vertex 197.9898987322333 197.9898987322333 0
      vertex 178.19090885901 168.2914139223983 0
      vertex 173.24116139070415 173.24116139070415 0
    endloop
  endfacet
  facet normal 0 0 -1
    outer loop
      vertex 169.7056274847714 169.7056274847714 0
      vertex 174.65537495307726 164.75588001646557 0
      vertex 163.3416664540925 154.8563850798539 0
    endloop
  endfacet
  facet normal 0 0 -1
    outer loop
      vertex 70.71067811865476 70.71067811865476 0
      vertex 130.8147545195113 120.91525958289964 0
      vertex 163.3416664540925 147.78531726798843 0
    endloop
  endfacet
  facet normal 0 0 -1
    outer loop
      vertex 211.4249275747777 184.55486988968892 0
      vertex 75.66042558696059 65.76093065034893 0
      vertex 70.71067811865476 70.71067811865476 0
    endloop
  endfacet
  facet normal 0 0 -1
    outer loop
      vertex 134.35028842544406 124.45079348883239 0
      vertex 159.80613254815975 151.32085117392117 0
      vertex 163.3416664540925 147.78531726798843 0
    endloop
  endfacet
  facet normal 0 0 -1
    outer loop
      vertex 130.8147545195113 120.91525958289964 0
      vertex 134.35028842544406 124.45079348883239 0
      vertex 163.3416664540925 147.78531726798843 0
    endloop
  endfacet
  facet normal 0 0 -1
    outer loop
      vertex 174.65537495307726 164.75588001646557 0
      vertex 166.87720036002523 151.32085117392117 0
      vertex 163.3416664540925 154.8563850798539 0
    endloop
  endfacet
  facet normal 0 0 -1
    outer loop
      vertex 197.9898987322333 197.9898987322333 0
      vertex 211.4249275747777 184.55486988968892 0
      vertex 178.19090885901 168.2914139223983 0
    endloop
  endfacet
  facet normal -0.7071067811865476 0.7071067811865476 0
    outer loop
      vertex 129.40054095713822 129.40054095713822 0
      vertex 129.40054095713822 129.40054095713822 5
      vertex 169.7056274847714 169.7056274847714 0
    endloop
  endfacet
  facet normal -0.7071067811865476 0.7071067811865476 2.586936618206061e-16
    outer loop
      vertex 197.9898987322333 197.9898987322333 0
      vertex 173.24116139070415 173.24116139070415 0
      vertex 173.24116139070415 173.24116139070415 5
    endloop
  endfacet
  facet normal 0.7071067811865476 0.7071067811865476 0
    outer loop
      vertex 197.9898987322333 197.9898987322333 0
      vertex 197.9898987322333 197.9898987322333 5
      vertex 211.4249275747777 184.55486988968892 0
    endloop
  endfacet
  facet normal 0 0 -1
    outer loop
      vertex 13.435028842544403 -13.435028842544403 0
      vertex 29.698484809834998 19.79898987322333 0
      vertex 33.23401871576773 23.33452377915607 0
    endloop
  endfacet
  facet normal 0 0 -1
    outer loop
      vertex 13.435028842544403 -13.435028842544403 0
      vertex 33.23401871576773 23.33452377915607 0
      vertex 46.66904755831214 31.112698372208094 0
    endloop
  endfacet
  facet normal 0 0 -1
    outer loop
      vertex 211.4249275747777 184.55486988968892 0
      vertex 46.66904755831214 31.112698372208094 0
      vertex 50.204581464244875 34.64823227814083 0
    endloop
  endfacet
  facet normal 0 0 -1
    outer loop
      vertex 13.435028842544403 -13.435028842544403 0
      vertex 46.66904755831214 31.112698372208094 0
      vertex 211.4249275747777 184.55486988968892 0
    endloop
  endfacet
  facet normal 0.7071067811865475 -0.7071067811865475 0
    outer loop
      vertex 13.435028842544403 -13.435028842544403 0
      vertex 211.4249275747777 184.55486988968892 0
      vertex 13.435028842544403 -13.435028842544403 0.7140740033710574
    endloop
  endfacet
  facet normal -0.7071067811865476 -0.7071067811865476 0
    outer loop
      vertex 13.435028842544403 -13.435028842544403 0
      vertex 13.435028842544403 -13.435028842544403 0.7140740033710574
      vertex 11.312974740607556 -11.312974740607556 5
    endloop
  endfacet
  facet normal 0 0 -1
    outer loop
      vertex 211.4249275747777 184.55486988968892 0
      vertex 72.12489168102785 62.22539674441619 0
      vertex 75.66042558696059 65.76093065034893 0
    endloop
  endfacet
  facet normal 0 0 -1
    outer loop
      vertex 211.4249275747777 184.55486988968892 0
      vertex 70.71067811865476 70.71067811865476 0
      vertex 163.3416664540925 147.78531726798843 0
    endloop
  endfacet
  facet normal 0 0 -1
    outer loop
      vertex 211.4249275747777 184.55486988968892 0
      vertex 50.204581464244875 34.64823227814083 0
      vertex 72.12489168102785 62.22539674441619 0
    endloop
  endfacet
  facet normal 0 0 -1
    outer loop
      vertex 211.4249275747777 184.55486988968892 0
      vertex 174.65537495307726 164.75588001646557 0
      vertex 178.19090885901 168.2914139223983 0
    endloop
  endfacet
  facet normal 0 0 -1
    outer loop
      vertex 211.4249275747777 184.55486988968892 0
      vertex 163.3416664540925 147.78531726798843 0
      vertex 166.87720036002523 151.32085117392117 0
    endloop
  endfacet
  facet normal 0 0 -1
    outer loop
      vertex 211.4249275747777 184.55486988968892 0
      vertex 166.87720036002523 151.32085117392117 0
      vertex 174.65537495307726 164.75588001646557 0
    endloop
  endfacet
  facet normal 0.7071067811865475 -0.7071067811865475 0
    outer loop
      vertex 211.4249275747777 184.55486988968892 0
      vertex 211.4249275747777 184.55486988968892 0.7140740033710574
      vertex 13.435028842544403 -13.435028842544403 0.7140740033710574
    endloop
  endfacet
  facet normal 0.7071067811865476 0.7071067811865476 0
    outer loop
      vertex 211.4249275747777 184.55486988968892 0
      vertex 209.30287347284087 186.67692399162576 5
      vertex 211.4249275747777 184.55486988968892 0.7140740033710574
    endloop
  endfacet
  facet normal -0.7071067811865476 0.7071067811865476 2.586936618206061e-16
    outer loop
      vertex 0 0 5
      vertex 24.748737341529164 24.748737341529164 5
      vertex 24.748737341529164 24.748737341529164 0
    endloop
  endfacet
  facet normal -0.7071067811865476 0.7071067811865476 0
    outer loop
      vertex 67.17514421272202 67.17514421272202 5
      vertex 67.17514421272202 67.17514421272202 0
      vertex 28.284271247461902 28.284271247461902 5
    endloop
  endfacet
  facet normal 0 0 1
    outer loop
      vertex 0 0 5
      vertex 29.698484809834998 19.79898987322333 5
      vertex 24.748737341529164 24.748737341529164 5
    endloop
  endfacet
  facet normal 0 0 1
    outer loop
      vertex 28.284271247461902 28.284271247461902 5
      vertex 43.1335136523794 34.64823227814083 5
      vertex 67.17514421272202 67.17514421272202 5
    endloop
  endfacet
  facet normal 0 0 1
    outer loop
      vertex 28.284271247461902 28.284271247461902 5
      vertex 33.23401871576773 23.33452377915607 5
      vertex 43.1335136523794 34.64823227814083 5
    endloop
  endfacet
  facet normal 0 0 1
    outer loop
      vertex 70.71067811865476 70.71067811865476 5
      vertex 75.66042558696059 65.76093065034893 5
      vertex 125.86500705120547 125.86500705120547 5
    endloop
  endfacet
  facet normal 0 0 1
    outer loop
      vertex 67.17514421272202 67.17514421272202 5
      vertex 43.1335136523794 34.64823227814083 5
      vertex 46.66904755831214 38.18376618407357 5
    endloop
  endfacet
  facet normal 0 0 1
    outer loop
      vertex 67.17514421272202 67.17514421272202 5
      vertex 46.66904755831214 38.18376618407357 5
      vertex 72.12489168102785 62.22539674441619 5
    endloop
  endfacet
  facet normal 0 0 1
    outer loop
      vertex 0 0 5
      vertex 11.312974740607556 -11.312974740607556 5
      vertex 29.698484809834998 19.79898987322333 5
    endloop
  endfacet
  facet normal 0 0 1
    outer loop
      vertex 72.12489168102785 62.22539674441619 5
      vertex 46.66904755831214 38.18376618407357 5
      vertex 50.204581464244875 34.64823227814083 5
    endloop
  endfacet
  facet normal 0 0 1
    outer loop
      vertex 72.12489168102785 62.22539674441619 5
      vertex 50.204581464244875 34.64823227814083 5
      vertex 75.66042558696059 65.76093065034893 5
    endloop
  endfacet
  facet normal 0 0 1
    outer loop
      vertex 125.86500705120547 125.86500705120547 5
      vertex 75.66042558696059 65.76093065034893 5
      vertex 42.585350979676896 19.95940149846178 5
    endloop
  endfacet
  facet normal 0 0 1
    outer loop
      vertex 125.86500705120547 125.86500705120547 5
      vertex 42.585350979676896 19.95940149846178 5
      vertex 130.8147545195113 120.91525958289964 5
    endloop
  endfacet
  facet normal -0.7071067811865476 0.7071067811865476 0
    outer loop
      vertex 125.86500705120547 125.86500705120547 5
      vertex 125.86500705120547 125.86500705120547 0
      vertex 70.71067811865476 70.71067811865476 5
    endloop
  endfacet
  facet normal -0.7071067811865476 0.7071067811865476 0
    outer loop
      vertex 169.7056274847714 169.7056274847714 5
      vertex 169.7056274847714 169.7056274847714 0
      vertex 129.40054095713822 129.40054095713822 5
    endloop
  endfacet
  facet normal -0.7071067811865476 0.7071067811865476 0
    outer loop
      vertex 197.9898987322333 197.9898987322333 0
      vertex 173.24116139070415 173.24116139070415 5
      vertex 197.9898987322333 197.9898987322333 5
    endloop
  endfacet
  facet normal 0 0 1
    outer loop
      vertex 129.40054095713822 129.40054095713822 5
      vertex 134.35028842544406 124.45079348883239 5
      vertex 169.7056274847714 169.7056274847714 5
    endloop
  endfacet
  facet normal 0 0 1
    outer loop
      vertex 197.9898987322333 197.9898987322333 5
      vertex 173.24116139070415 173.24116139070415 5
      vertex 178.19090885901 168.2914139223983 5
    endloop
  endfacet
  facet normal 0 0 1
    outer loop
      vertex 169.7056274847714 169.7056274847714 5
      vertex 134.35028842544406 124.45079348883239 5
      vertex 159.80613254815975 151.32085117392117 5
    endloop
  endfacet
  facet normal 0 0 1
    outer loop
      vertex 169.7056274847714 169.7056274847714 5
      vertex 159.80613254815975 151.32085117392117 5
      vertex 163.3416664540925 154.8563850798539 5
    endloop
  endfacet
  facet normal 0 0 1
    outer loop
      vertex 169.7056274847714 169.7056274847714 5
      vertex 163.3416664540925 154.8563850798539 5
      vertex 174.65537495307726 164.75588001646557 5
    endloop
  endfacet
  facet normal 0 0 1
    outer loop
      vertex 159.80613254815975 151.32085117392117 5
      vertex 134.35028842544406 124.45079348883239 5
      vertex 163.3416664540925 147.78531726798843 5
    endloop
  endfacet
  facet normal 0 0 1
    outer loop
      vertex 130.8147545195113 120.91525958289964 5
      vertex 163.3416664540925 147.78531726798843 5
      vertex 134.35028842544406 124.45079348883239 5
    endloop
  endfacet
  facet normal 0 0 1
    outer loop
      vertex 174.65537495307726 164.75588001646557 5
      vertex 163.3416664540925 154.8563850798539 5
      vertex 166.87720036002523 151.32085117392117 5
    endloop
  endfacet
  facet normal 0 0 1
    outer loop
      vertex 174.65537495307726 164.75588001646557 5
      vertex 166.87720036002523 151.32085117392117 5
      vertex 178.19090885901 168.2914139223983 5
    endloop
  endfacet
  facet normal 0 0 1
    outer loop
      vertex 197.9898987322333 197.9898987322333 5
      vertex 178.19090885901 168.2914139223983 5
      vertex 209.30287347284087 186.67692399162576 5
    endloop
  endfacet
  facet normal -0.7071067811865475 -0.7071067811865475 -1.9030368610528707e-17
    outer loop
      vertex 13.435028842544403 -13.435028842544403 0
      vertex 11.312974740607556 -11.312974740607556 5
      vertex 0 0 5
    endloop
  endfacet
  facet normal 0 0 1
    outer loop
      vertex 42.585350979676896 19.95940149846178 5
      vertex 33.23401871576773 23.33452377915607 5
      vertex 29.698484809834998 19.79898987322333 5
    endloop
  endfacet
  facet normal 0 0 1
    outer loop
      vertex 42.585350979676896 19.95940149846178 5
      vertex 43.1335136523794 34.64823227814083 5
      vertex 33.23401871576773 23.33452377915607 5
    endloop
  endfacet
  facet normal 0 0 1
    outer loop
      vertex 42.585350979676896 19.95940149846178 5
      vertex 46.66904755831214 31.112698372208094 5
      vertex 43.1335136523794 34.64823227814083 5
    endloop
  endfacet
  facet normal 0 0 1
    outer loop
      vertex 42.585350979676896 19.95940149846178 5
      vertex 75.66042558696059 65.76093065034893 5
      vertex 50.204581464244875 34.64823227814083 5
    endloop
  endfacet
  facet normal 0 0 1
    outer loop
      vertex 11.312974740607556 -11.312974740607556 5
      vertex 42.585350979676896 19.95940149846178 5
      vertex 29.698484809834998 19.79898987322333 5
    endloop
  endfacet
  facet normal 0 0 1
    outer loop
      vertex 42.585350979676896 19.95940149846178 5
      vertex 50.204581464244875 34.64823227814083 5
      vertex 46.66904755831214 31.112698372208094 5
    endloop
  endfacet
  facet normal 0.7071067811865475 0.7071067811865475 -1.667037709393572e-17
    outer loop
      vertex 211.4249275747777 184.55486988968892 0
      vertex 197.9898987322333 197.9898987322333 5
      vertex 209.30287347284087 186.67692399162576 5
    endloop
  endfacet
  facet normal 0 0 1
    outer loop
      vertex 130.8147545195113 120.91525958289964 5
      vertex 42.585350979676896 19.95940149846178 5
      vertex 163.3416664540925 147.78531726798843 5
    endloop
  endfacet
  facet normal 0 0 1
    outer loop
      vertex 163.3416664540925 147.78531726798843 5
      vertex 42.585350979676896 19.95940149846178 5
      vertex 166.87720036002523 151.32085117392117 5
    endloop
  endfacet
  facet normal 0 0 1
    outer loop
      vertex 209.30287347284087 186.67692399162576 5
      vertex 178.19090885901 168.2914139223983 5
      vertex 166.87720036002523 151.32085117392117 5
    endloop
  endfacet
  facet normal 0 0 1
    outer loop
      vertex 209.30287347284087 186.67692399162576 5
      vertex 166.87720036002523 151.32085117392117 5
      vertex 42.585350979676896 19.95940149846178 5
    endloop
  endfacet
  facet normal 0.57922796533957 -0.57922796533957 0.5735764363510446
    outer loop
      vertex 211.4249275747777 184.55486988968892 0.7140740033710574
      vertex 209.30287347284087 186.67692399162576 5
      vertex 13.435028842544403 -13.435028842544403 0.7140740033710574
    endloop
  endfacet
  facet normal 0.5792279653395692 -0.5792279653395692 0.5735764363510458
    outer loop
      vertex 11.312974740607556 -11.312974740607556 5
      vertex 13.435028842544403 -13.435028842544403 0.7140740033710574
      vertex 42.585350979676896 19.95940149846178 5
    endloop
  endfacet
  facet normal 0.5792279653395694 -0.5792279653395694 0.5735764363510454
    outer loop
      vertex 209.30287347284087 186.67692399162576 5
      vertex 42.585350979676896 19.95940149846178 5
      vertex 13.435028842544403 -13.435028842544403 0.7140740033710574
    endloop
  endfacet
  facet normal 0.7071067811865476 -0.7071067811865476 -3.409803617306629e-17
    outer loop
      vertex 43.1335136523794 34.64823227814083 0
      vertex 46.66904755831214 38.18376618407357 0
      vertex 46.66904755831214 38.18376618407357 5
    endloop
  endfacet
  facet normal -0.7071067811865476 -0.7071067811865476 0
    outer loop
      vertex 46.66904755831214 38.18376618407357 0
      vertex 50.204581464244875 34.64823227814083 0
      vertex 46.66904755831214 38.18376618407357 5
    endloop
  endfacet
  facet normal 0.7071067811865476 0.7071067811865476 0
    outer loop
      vertex 46.66904755831214 31.112698372208094 0
      vertex 43.1335136523794 34.64823227814083 0
      vertex 46.66904755831214 31.112698372208094 5
    endloop
  endfacet
  facet normal -0.7071067811865476 0.7071067811865476 0
    outer loop
      vertex 46.66904755831214 31.112698372208094 0
      vertex 46.66904755831214 31.112698372208094 5
      vertex 50.204581464244875 34.64823227814083 0
    endloop
  endfacet
  facet normal 0.7071067811865476 -0.7071067811865476 0
    outer loop
      vertex 43.1335136523794 34.64823227814083 0
      vertex 46.66904755831214 38.18376618407357 5
      vertex 43.1335136523794 34.64823227814083 5
    endloop
  endfacet
  facet normal 0.7071067811865476 0.7071067811865476 0
    outer loop
      vertex 43.1335136523794 34.64823227814083 5
      vertex 46.66904755831214 31.112698372208094 5
      vertex 43.1335136523794 34.64823227814083 0
    endloop
  endfacet
  facet normal -0.7071067811865476 -0.7071067811865476 0
    outer loop
      vertex 50.204581464244875 34.64823227814083 0
      vertex 50.204581464244875 34.64823227814083 5
      vertex 46.66904755831214 38.18376618407357 5
    endloop
  endfacet
  facet normal -0.7071067811865476 0.7071067811865476 0
    outer loop
      vertex 50.204581464244875 34.64823227814083 0
      vertex 46.66904755831214 31.112698372208094 5
      vertex 50.204581464244875 34.64823227814083 5
    endloop
  endfacet
  facet normal 0.7071067811865476 -0.7071067811865476 -3.409803617306629e-17
    outer loop
      vertex 159.80613254815975 151.32085117392117 0
      vertex 163.3416664540925 154.8563850798539 0
      vertex 163.3416664540925 154.8563850798539 5
    endloop
  endfacet
  facet normal -0.7071067811865476 -0.7071067811865476 0
    outer loop
      vertex 163.3416664540925 154.8563850798539 0
      vertex 166.87720036002523 151.32085117392117 0
      vertex 163.3416664540925 154.8563850798539 5
    endloop
  endfacet
  facet normal 0.7071067811865476 0.7071067811865476 0
    outer loop
      vertex 163.3416664540925 147.78531726798843 0
      vertex 159.80613254815975 151.32085117392117 0
      vertex 163.3416664540925 147.78531726798843 5
    endloop
  endfacet
  facet normal -0.7071067811865476 0.7071067811865476 0
    outer loop
      vertex 163.3416664540925 147.78531726798843 0
      vertex 163.3416664540925 147.78531726798843 5
      vertex 166.87720036002523 151.32085117392117 0
    endloop
  endfacet
  facet normal 0.7071067811865476 -0.7071067811865476 0
    outer loop
      vertex 159.80613254815975 151.32085117392117 0
      vertex 163.3416664540925 154.8563850798539 5
      vertex 159.80613254815975 151.32085117392117 5
    endloop
  endfacet
  facet normal 0.7071067811865476 0.7071067811865476 0
    outer loop
      vertex 159.80613254815975 151.32085117392117 5
      vertex 163.3416664540925 147.78531726798843 5
      vertex 159.80613254815975 151.32085117392117 0
    endloop
  endfacet
  facet normal -0.7071067811865476 -0.7071067811865476 0
    outer loop
      vertex 166.87720036002523 151.32085117392117 0
      vertex 166.87720036002523 151.32085117392117 5
      vertex 163.3416664540925 154.8563850798539 5
    endloop
  endfacet
  facet normal -0.7071067811865476 0.7071067811865476 0
    outer loop
      vertex 166.87720036002523 151.32085117392117 0
      vertex 163.3416664540925 147.78531726798843 5
      vertex 166.87720036002523 151.32085117392117 5
    endloop
  endfacet
  facet normal -0.7071067811865476 -0.7071067811865476 0
    outer loop
      vertex 173.24116139070415 173.24116139070415 0
      vertex 178.19090885901 168.2914139223983 0
      vertex 173.24116139070415 173.24116139070415 5
    endloop
  endfacet
  facet normal 0.7071067811865476 0.7071067811865476 0
    outer loop
      vertex 174.65537495307726 164.75588001646557 0
      vertex 169.7056274847714 169.7056274847714 0
      vertex 174.65537495307726 164.75588001646557 5
    endloop
  endfacet
  facet normal -0.7071067811865476 0.7071067811865476 0
    outer loop
      vertex 174.65537495307726 164.75588001646557 0
      vertex 174.65537495307726 164.75588001646557 5
      vertex 178.19090885901 168.2914139223983 0
    endloop
  endfacet
  facet normal 0.7071067811865476 0.7071067811865476 0
    outer loop
      vertex 169.7056274847714 169.7056274847714 5
      vertex 174.65537495307726 164.75588001646557 5
      vertex 169.7056274847714 169.7056274847714 0
    endloop
  endfacet
  facet normal -0.7071067811865476 -0.7071067811865476 0
    outer loop
      vertex 178.19090885901 168.2914139223983 5
      vertex 173.24116139070415 173.24116139070415 5
      vertex 178.19090885901 168.2914139223983 0
    endloop
  endfacet
  facet normal -0.7071067811865476 0.7071067811865476 0
    outer loop
      vertex 178.19090885901 168.2914139223983 0
      vertex 174.65537495307726 164.75588001646557 5
      vertex 178.19090885901 168.2914139223983 5
    endloop
  endfacet
  facet normal -0.7071067811865478 -0.7071067811865472 0
    outer loop
      vertex 28.284271247461902 28.284271247461902 0
      vertex 33.23401871576773 23.33452377915607 0
      vertex 28.284271247461902 28.284271247461902 5
    endloop
  endfacet
  facet normal 0.7071067811865475 0.7071067811865475 0
    outer loop
      vertex 29.698484809834998 19.79898987322333 0
      vertex 24.748737341529164 24.748737341529164 0
      vertex 29.698484809834998 19.79898987322333 5
    endloop
  endfacet
  facet normal -0.7071067811865479 0.7071067811865472 0
    outer loop
      vertex 29.698484809834998 19.79898987322333 0
      vertex 29.698484809834998 19.79898987322333 5
      vertex 33.23401871576773 23.33452377915607 0
    endloop
  endfacet
  facet normal 0.7071067811865475 0.7071067811865475 0
    outer loop
      vertex 24.748737341529164 24.748737341529164 5
      vertex 29.698484809834998 19.79898987322333 5
      vertex 24.748737341529164 24.748737341529164 0
    endloop
  endfacet
  facet normal -0.7071067811865478 -0.7071067811865472 4.670680948599219e-17
    outer loop
      vertex 28.284271247461902 28.284271247461902 5
      vertex 33.23401871576773 23.33452377915607 0
      vertex 33.23401871576773 23.33452377915607 5
    endloop
  endfacet
  facet normal -0.7071067811865479 0.7071067811865472 0
    outer loop
      vertex 33.23401871576773 23.33452377915607 0
      vertex 29.698484809834998 19.79898987322333 5
      vertex 33.23401871576773 23.33452377915607 5
    endloop
  endfacet
  facet normal -0.7071067811865465 -0.7071067811865485 0
    outer loop
      vertex 129.40054095713822 129.40054095713822 0
      vertex 134.35028842544406 124.45079348883239 0
      vertex 129.40054095713822 129.40054095713822 5
    endloop
  endfacet
  facet normal 0.7071067811865476 0.7071067811865476 0
    outer loop
      vertex 130.8147545195113 120.91525958289964 0
      vertex 125.86500705120547 125.86500705120547 0
      vertex 130.8147545195113 120.91525958289964 5
    endloop
  endfacet
  facet normal -0.707106781186546 0.7071067811865489 0
    outer loop
      vertex 130.8147545195113 120.91525958289964 0
      vertex 130.8147545195113 120.91525958289964 5
      vertex 134.35028842544406 124.45079348883239 0
    endloop
  endfacet
  facet normal 0.7071067811865476 0.7071067811865476 0
    outer loop
      vertex 125.86500705120547 125.86500705120547 0
      vertex 125.86500705120547 125.86500705120547 5
      vertex 130.8147545195113 120.91525958289964 5
    endloop
  endfacet
  facet normal -0.7071067811865465 -0.7071067811865485 0
    outer loop
      vertex 134.35028842544406 124.45079348883239 5
      vertex 129.40054095713822 129.40054095713822 5
      vertex 134.35028842544406 124.45079348883239 0
    endloop
  endfacet
  facet normal -0.707106781186546 0.7071067811865489 0
    outer loop
      vertex 134.35028842544406 124.45079348883239 0
      vertex 130.8147545195113 120.91525958289964 5
      vertex 134.35028842544406 124.45079348883239 5
    endloop
  endfacet
  facet normal -0.7071067811865476 -0.7071067811865476 0
    outer loop
      vertex 70.71067811865476 70.71067811865476 0
      vertex 75.66042558696059 65.76093065034893 0
      vertex 70.71067811865476 70.71067811865476 5
    endloop
  endfacet
  facet normal 0.7071067811865476 0.7071067811865476 0
    outer loop
      vertex 72.12489168102785 62.22539674441619 0
      vertex 67.17514421272202 67.17514421272202 0
      vertex 72.12489168102785 62.22539674441619 5
    endloop
  endfacet
  facet normal -0.7071067811865476 0.7071067811865476 0
    outer loop
      vertex 72.12489168102785 62.22539674441619 0
      vertex 72.12489168102785 62.22539674441619 5
      vertex 75.66042558696059 65.76093065034893 0
    endloop
  endfacet
  facet normal 0.7071067811865476 0.7071067811865476 0
    outer loop
      vertex 67.17514421272202 67.17514421272202 5
      vertex 72.12489168102785 62.22539674441619 5
      vertex 67.17514421272202 67.17514421272202 0
    endloop
  endfacet
  facet normal -0.7071067811865476 -0.7071067811865476 4.160587072187125e-17
    outer loop
      vertex 70.71067811865476 70.71067811865476 5
      vertex 75.66042558696059 65.76093065034893 0
      vertex 75.66042558696059 65.76093065034893 5
    endloop
  endfacet
  facet normal -0.7071067811865476 0.7071067811865476 0
    outer loop
      vertex 75.66042558696059 65.76093065034893 0
      vertex 72.12489168102785 62.22539674441619 5
      vertex 75.66042558696059 65.76093065034893 5
    endloop
  endfacet
endsolid OpenSCAD_Model
